<svg xmlns="http://www.w3.org/2000/svg" viewBox="0 0 563.54 267.8"><defs><style>.cls-1{fill:#fff;stroke:#fff;stroke-miterlimit:10;stroke-width:7px;}</style></defs><g id="Camada_2" data-name="Camada 2"><g id="Camada_1-2" data-name="Camada 1"><path class="cls-1" d="M3.5,3.5H27.7q19.53,0,33.84,7T84.48,33.66A59.88,59.88,0,0,1,91.4,62.44q0,28.26-20.75,45.38A56.38,56.38,0,0,1,57,116.42a56,56,0,0,1-13.83,4,105,105,0,0,1-15.64,1H3.5ZM28.22,109.2a57.37,57.37,0,0,0,25.45-5.53A42.41,42.41,0,0,0,71.56,87.59Q78.08,77,78.09,62.53a52.76,52.76,0,0,0-4.8-22q-4.8-10.63-16-17.72T28.22,15.77H16.72V109.2Z"/><path class="cls-1" d="M126.22,15.77v35h46.59V63.05H126.22V109.2H174.1v12.27H113V3.5h61.1V15.77Z"/><path class="cls-1" d="M209.19,15.77v35h46.59V63.05H209.19V109.2h47.88v12.27H196V3.5h61.1V15.77Z"/><path class="cls-1" d="M292.16,121.47H278.94V3.5h21.43q14.7,0,23.55,4.06t13.79,14.26A34.6,34.6,0,0,1,341,36.69a34.51,34.51,0,0,1-4.66,17.63q-9,15.46-32.67,15.47h-11.5Zm10.72-63.69q12.18,0,18.67-5.71T328,36.51q0-10.18-6.48-15.47t-19.62-5.27h-9.77v42Z"/><path class="cls-1" d="M272.33,222.24l37-94.55,34.91,94.55,34.66-88.5h14.35L343.8,257.85l-34.74-94.38-37.25,94.47-45.29-124.2H241Z"/><path class="cls-1" d="M420.63,146v35h46.59v12.27H420.63v46.15h47.88v12.27h-61.1v-118h61.1V146Z"/><path class="cls-1" d="M490.38,133.74h21.35q13,0,20.95,3.59t12.84,12.49a32.55,32.55,0,0,1,4,15.73q0,10.63-5.53,17.46a49.49,49.49,0,0,1-6.13,5.7,32,32,0,0,1,12,6.27,29.55,29.55,0,0,1,7.43,10.5A33.5,33.5,0,0,1,560,218.79q0,15-11.93,24.8A33.41,33.41,0,0,1,536,250a62.93,62.93,0,0,1-16.12,1.72H490.38Zm23.16,52q8.73,0,13.48-2.2a15.86,15.86,0,0,0,7.52-8,21.75,21.75,0,0,0,2.08-9.59q0-20-22.73-20H503.6v39.75Zm5.1,53.67q10.29,0,16.12-2.42a19.38,19.38,0,0,0,9.38-8.47A21.07,21.07,0,0,0,542.06,205q-4.75-5.62-13.31-7.17a70.11,70.11,0,0,0-11.84-.78H503.6v42.43Z"/></g></g></svg>