<svg xmlns="http://www.w3.org/2000/svg" viewBox="0 0 324.25 324.27"><defs><style>.cls-1{isolation:isolate;}.cls-2{fill:#fff;}.cls-10,.cls-12,.cls-3{fill:#04566c;}.cls-4{fill:#118697;}.cls-5{fill:#6bc9c4;}.cls-6{fill:#55bfbc;}.cls-7{fill:#42b2b2;}.cls-8{fill:#35a7aa;}.cls-9{fill:#2597a0;}.cls-10,.cls-12{mix-blend-mode:multiply;}.cls-10{opacity:0.74;}.cls-11{fill:#9ae1e5;}.cls-12{opacity:0.51;}</style></defs><g class="cls-1"><g id="Camada_2" data-name="Camada 2"><g id="Layer_1" data-name="Layer 1"><path class="cls-2" d="M162.12,324.27A31,31,0,0,1,140,315.11L9.15,184.25a31.3,31.3,0,0,1,0-44.23L140,9.16a31.28,31.28,0,0,1,44.23,0L315.1,140a31.3,31.3,0,0,1,0,44.23L184.24,315.11A31.06,31.06,0,0,1,162.12,324.27Z"/><path class="cls-3" d="M162.12,314.27a21.13,21.13,0,0,1-15-6.23L16.22,177.18a21.31,21.31,0,0,1,0-30.09L147.08,16.23a21.28,21.28,0,0,1,30.09,0L308,147.09a21.31,21.31,0,0,1,0,30.09L177.17,308A21.13,21.13,0,0,1,162.12,314.27Z"/><path class="cls-4" d="M304.25,162.59c0,.2,0,.4,0,.6a11.23,11.23,0,0,1-3.26,6.92L170.1,301a11.27,11.27,0,0,1-15.95,0L23.29,170.11A11.22,11.22,0,0,1,20,162.59a3.1,3.1,0,0,1,0-.43,11.23,11.23,0,0,1,3.3-8l16.22-16.22,24.66-24.66L88.82,88.63,113.47,64l24.65-24.65,16-16a11.29,11.29,0,0,1,15.95,0l16,16L210.78,64l24.65,24.65,24.64,24.65,24.66,24.66L301,154.16A11.21,11.21,0,0,1,304.25,162.59Z"/><path class="cls-5" d="M304.25,162.59H20a3.1,3.1,0,0,1,0-.43,11.23,11.23,0,0,1,3.3-8l16.22-16.22H284.73L301,154.16A11.21,11.21,0,0,1,304.25,162.59Z"/><polygon class="cls-6" points="284.73 137.94 39.51 137.94 64.17 113.28 260.07 113.28 284.73 137.94"/><polygon class="cls-7" points="260.07 113.28 64.17 113.28 88.82 88.63 235.43 88.63 260.07 113.28"/><polygon class="cls-8" points="235.43 88.63 88.82 88.63 113.47 63.98 210.78 63.98 235.43 88.63"/><polygon class="cls-9" points="210.78 63.98 113.47 63.98 138.12 39.33 186.13 39.33 210.78 63.98"/><polygon class="cls-3" points="45.67 165.79 82 214.49 90.42 205.01 114.51 242.17 122.06 230.82 164.06 284.52 219.8 191.59 226.51 210.98 244.74 182.94 252.32 191.08 260.06 181.27 266.77 182.94 274.32 162.47 45.67 165.79"/><path class="cls-10" d="M304.21,163.19a11.23,11.23,0,0,1-3.26,6.92L170.1,301a11.27,11.27,0,0,1-15.95,0L23.29,170.11a11.28,11.28,0,0,1-3.3-8Z"/><polygon class="cls-2" points="45.67 165.79 122.06 186.95 147.35 176.37 181.93 182.94 222.19 172.5 269.67 174.69 274.32 162.47 225.8 101.5 211.87 114.17 163.35 39.34 129.29 95.08 115.35 81.66 69.93 148.81 61.67 139.52 45.67 165.79"/><polygon class="cls-11" points="61.67 139.52 58.77 155.87 66 159.37 81.59 175.74 122.06 186.95 78.9 163.24 69.93 148.81 61.67 139.52"/><polygon class="cls-11" points="115.35 81.66 111.93 107.98 93.87 135.85 119.16 115.72 115.54 126.56 125.87 122.43 136.19 139.52 136.19 155.87 147.35 176.37 181.93 182.94 155.29 161.14 147.03 122.43 137.9 100.75 129.29 95.08 115.35 81.66"/><polygon class="cls-12" points="158 215.72 177.74 233.22 190.12 227.59 207.93 253.92 222.09 223.5 228.83 233.22 235.8 219.1 248.98 216.65 216.83 204.61 158 215.72"/><polygon class="cls-2" points="248.98 216.65 227.86 212.63 212.41 219.1 187.69 212.25 158 215.72 175.52 190.13 180.56 195.81 208.31 154.78 216.82 162.97 222.09 166.44 227.66 179.68 232.71 203.33 248.98 216.65"/><polygon class="cls-11" points="175.52 190.13 173.74 200.11 178.16 202.25 187.69 212.25 212.41 219.1 186.04 204.61 180.56 195.8 175.52 190.13"/><polygon class="cls-11" points="248.98 216.65 227.86 212.63 221.04 200.11 221.04 190.13 214.74 179.68 208.43 182.21 210.64 175.58 195.19 187.88 206.22 170.85 208.31 154.78 216.82 162.97 222.09 166.44 227.66 179.68 232.71 203.33 248.98 216.65"/><polygon class="cls-11" points="163.35 39.34 155.29 81.66 166.12 90.95 152.22 118.82 171.8 96.11 166.12 113.14 175.93 102.82 185.74 132.3 211.03 149.27 241.48 166.43 214.64 139.52 216.71 127.1 227.54 134.82 211.87 114.17 163.35 39.34"/><polygon class="cls-11" points="225.8 101.5 219.8 116.75 225.8 113.14 238.38 137.4 262.64 160.11 269.67 174.69 266.25 155.87 241.48 127.1 235.07 113.14 225.8 101.5"/></g></g></g></svg>