<svg xmlns="http://www.w3.org/2000/svg" viewBox="0 0 363.68 327.12"><defs><style>.cls-1{isolation:isolate;}.cls-2{fill:#fff;}.cls-3,.cls-5{fill:#e6a347;}.cls-4{fill:#ffe165;}.cls-5{mix-blend-mode:multiply;opacity:0.24;}.cls-6{fill:#3d9b38;}</style></defs><g class="cls-1"><g id="Camada_2" data-name="Camada 2"><g id="Layer_1" data-name="Layer 1"><path class="cls-2" d="M363.15,203.28c-.07-.24-.17-.51-.25-.74a12.4,12.4,0,0,0-1.38-2.62c-.1-.14-.2-.29-.33-.46a13.17,13.17,0,0,0-1.61-1.8l-.25-.23a16.53,16.53,0,0,0-1.39-1.12l-.34-.24c-.47-.32-1-.63-1.52-.95l-.34-.18c-.39-.21-.78-.42-1.21-.63v-5.48a12.21,12.21,0,0,0-.57-3.6c-.08-.25-.18-.5-.27-.75,0,0,0-.07-.05-.1a11.32,11.32,0,0,0-1.08-2.08,6.7,6.7,0,0,0-.39-.59,14.53,14.53,0,0,0-1.61-1.84c-.16-.16-.34-.31-.46-.42-.4-.35-.83-.7-1.24-1l-.47-.33c-.49-.34-1-.66-1.55-1l-.4-.22c-.38-.2-.78-.41-1.17-.59l-.57-.26-1.34-.57-.47-.18L342,175v-4.4c0-12.3-16.1-15.76-31.19-18.05-2.86-.43-5.91-.83-9.12-1.2a63.33,63.33,0,0,0,17.47-21.94,68.81,68.81,0,0,0,7-26.61,10,10,0,0,0-10-10.22,10.1,10.1,0,0,0-1.82.17,74.62,74.62,0,0,0-10.66,2.76c.05-.28.1-.54.14-.82A10,10,0,0,0,294,83.18c-.2,0-.41,0-.61,0A35.84,35.84,0,0,0,278,88.12c-7.89-17.63-25.42-23.68-35.21-24.28l-.61,0a10,10,0,0,0-9.88,11.53A43.4,43.4,0,0,0,244.07,99.7a10,10,0,0,0-7.64,9.91c-12.58-1.51-27.78-2.46-44.12-2.74V68.76a63,63,0,0,0,35.43-32.25,69,69,0,0,0,6.84-26.29A10,10,0,0,0,224.58,0a9.42,9.42,0,0,0-1.82.17c-25.51,4.7-38.79,19.38-45.7,32.92a43.9,43.9,0,0,0-19.72-9.75,9.52,9.52,0,0,0-1.68-.14,10,10,0,0,0-10,10.35c.69,19.21,11.94,30.53,24.21,35.67V106.9a414.72,414.72,0,0,0-48.14,3.46,115.17,115.17,0,0,0-19.61,4.21c-8.84,3-13.33,7.74-13.33,14.1v5.66c-.91.37-1.83.79-2.73,1.26-8.84-12.11-22.72-16.54-31-17-.2,0-.41,0-.61,0a10,10,0,0,0-9.88,11.53c3.31,21.43,18.07,31.61,29.83,35.47-.21,1-.38,2-.51,3.1a10.06,10.06,0,0,0,1.06,5.82,11.94,11.94,0,0,0-4,9V196.1a11.77,11.77,0,0,0,3.3,8.28c-20.14.92-37.6,2.93-48.69,5.67-.82.2-1.6.41-2.34.61l-1,.29c-1.45.43-2.83.9-4.06,1.39l-.84.34c-.31.13-.61.26-.92.41-.8.37-1.56.77-2.27,1.18q-.39.22-.78.48c-.22.14-.43.28-.63.43l-.3.21-.32.25a14.15,14.15,0,0,0-3.73,4.28,12,12,0,0,0-.66,1.4,10.66,10.66,0,0,0-.47,1.45,11.17,11.17,0,0,0-.29,1.51,13.52,13.52,0,0,0-.08,1.42v12.84A11.5,11.5,0,0,0,7,240.19a11.32,11.32,0,0,0,.34,1.45l.09.31a10.79,10.79,0,0,0,.92,2.12,7,7,0,0,0,.4.67c.17.27.35.54.52.78a13.87,13.87,0,0,0,1.51,1.72l.36.33c.17.17.35.32.54.48l-.28.1c-.6.24-1.15.48-1.7.73l-.48.22c-.32.14-.63.3-1,.48l-.7.39q-.59.33-1.08.66l-.45.3,0,0c-.28.2-.57.41-.84.63s-.44.37-.66.56l0,0-.4.36H4a14.46,14.46,0,0,0-1.71,2,12,12,0,0,0-1.48,2.75h0c-.05.12-.1.25-.14.37a10,10,0,0,0-.42,1.51c0,.2-.07.35-.08.45A11.67,11.67,0,0,0,0,261.55v12.61a10.26,10.26,0,0,0,.05,1,10.06,10.06,0,0,0,.24,1.54,10.49,10.49,0,0,0,.43,1.45,10.53,10.53,0,0,0,.79,1.74,10.77,10.77,0,0,0,.81,1.29l.17.23a13.68,13.68,0,0,0,1.45,1.64l.43.39A7,7,0,0,0,5,284c.38.31.76.6,1.16.88a15.77,15.77,0,0,0,1.57,1l.45.25,1.14.57.54.25.69.3.64.26,1.34.51v4.4c0,2.76,1,8,7.76,11.71,3.56,2,8.85,3.64,16.15,5.08,13.29,2.62,32.95,4.38,54.62,4.93a25.36,25.36,0,0,0,9.45,5.24,115,115,0,0,0,19.61,4.21c16.16,2.31,37.54,3.58,60.21,3.58s44.06-1.27,60.22-3.58a115.17,115.17,0,0,0,19.61-4.21,25.47,25.47,0,0,0,9.26-5.08c16.88-.12,32.9-.94,46.55-2.4,3.29-.35,6.45-.75,9.41-1.17,1-.14,2-.28,2.89-.43,14.53-2.29,30-5.75,30-17.88V279.75a12.09,12.09,0,0,0-.56-3.58c-.09-.25-.18-.51-.28-.77a1,1,0,0,1,0-.1,12.37,12.37,0,0,0-1.08-2.08c-.13-.2-.27-.41-.4-.59a13.49,13.49,0,0,0-1.63-1.86l-.43-.39a15.74,15.74,0,0,0-1.27-1l-.43-.31c.22-.08.43-.18.67-.28l.61-.28c.42-.19.81-.39,1.15-.57l.5-.27c.58-.32,1.14-.67,1.61-1l.62-.45c.41-.31.77-.61,1.07-.87s.47-.44.65-.62a11.9,11.9,0,0,0,1.11-1.25c.22-.28.43-.57.62-.86a11.53,11.53,0,0,0,1-1.8,11.17,11.17,0,0,0,.46-1.15,11.79,11.79,0,0,0,.6-3.7V243.34a11.8,11.8,0,0,0-.56-3.55c-.08-.24-.16-.47-.25-.71a12.15,12.15,0,0,0-1.4-2.64l-.38-.51a13.52,13.52,0,0,0-1.29-1.45l-.37-.36a17.76,17.76,0,0,0-1.52-1.23c-.13-.1-.28-.19-.44-.3-.39-.26-.8-.52-1.28-.8l-.37-.21.8-.42.38-.22c.45-.25.87-.51,1.28-.78l.35-.24a16.3,16.3,0,0,0,1.56-1.24l.43-.41a13.31,13.31,0,0,0,1.43-1.61l.24-.32a12.64,12.64,0,0,0,1.42-2.64l.05-.12c.09-.24.17-.47.22-.64a11.74,11.74,0,0,0,.57-3.58V206.74A12,12,0,0,0,363.15,203.28Z"/><path class="cls-3" d="M182,279.75v12.62c0,6.57,37.23,11.9,83.16,11.9s83.15-5.33,83.15-11.9V279.75Z"/><ellipse class="cls-4" cx="265.12" cy="279.75" rx="83.16" ry="11.9"/><path class="cls-3" d="M265.12,287.53c-32.3,0-66.63-2.73-66.63-7.78S232.82,272,265.12,272s66.63,2.72,66.63,7.77S297.42,287.53,265.12,287.53Zm0-14.55c-42.26,0-65.63,4-65.63,6.77s23.37,6.78,65.63,6.78,65.63-4,65.63-6.78S307.38,273,265.12,273Z"/><path class="cls-3" d="M169.47,261.55v12.62c0,6.57,37.23,11.89,83.16,11.89s83.15-5.32,83.15-11.89V261.55Z"/><ellipse class="cls-4" cx="252.63" cy="261.55" rx="83.16" ry="11.9"/><path class="cls-3" d="M252.63,269.32c-32.3,0-66.63-2.72-66.63-7.77s34.33-7.78,66.63-7.78,66.63,2.73,66.63,7.78S284.93,269.32,252.63,269.32Zm0-14.55c-42.26,0-65.63,4-65.63,6.78s23.37,6.77,65.63,6.77,65.63-4,65.63-6.77S294.89,254.77,252.63,254.77Z"/><path class="cls-3" d="M186.5,243.34V256c0,6.57,37.23,11.9,83.15,11.9s83.16-5.33,83.16-11.9V243.34Z"/><ellipse class="cls-4" cx="269.65" cy="243.34" rx="83.16" ry="11.9"/><path class="cls-3" d="M269.65,251.12c-32.3,0-66.63-2.73-66.63-7.78s34.33-7.77,66.63-7.77,66.63,2.72,66.63,7.77S302,251.12,269.65,251.12Zm0-14.55c-42.26,0-65.63,4-65.63,6.77s23.37,6.78,65.63,6.78,65.63-4,65.63-6.78S311.91,236.57,269.65,236.57Z"/><path class="cls-3" d="M176.29,225.7v12.62c0,6.57,37.23,11.89,83.15,11.89s83.16-5.32,83.16-11.89V225.7Z"/><ellipse class="cls-4" cx="259.44" cy="225.7" rx="83.16" ry="11.9"/><path class="cls-3" d="M259.44,233.47c-32.3,0-66.63-2.72-66.63-7.77s34.33-7.78,66.63-7.78,66.63,2.73,66.63,7.78S291.74,233.47,259.44,233.47Zm0-14.55c-42.26,0-65.63,4-65.63,6.78s23.37,6.77,65.63,6.77,65.63-4,65.63-6.77S301.7,218.92,259.44,218.92Z"/><path class="cls-3" d="M187.37,206.74v12.62c0,6.57,37.23,11.9,83.15,11.9s83.16-5.33,83.16-11.9V206.74Z"/><ellipse class="cls-4" cx="270.52" cy="206.74" rx="83.16" ry="11.9"/><path class="cls-3" d="M270.52,214.52c-32.3,0-66.63-2.73-66.63-7.78S238.22,199,270.52,199s66.63,2.72,66.63,7.77S302.82,214.52,270.52,214.52Zm0-14.55c-42.26,0-65.63,4-65.63,6.77s23.37,6.78,65.63,6.78,65.63-4,65.63-6.78S312.78,200,270.52,200Z"/><path class="cls-3" d="M178.22,188.83v12.61c0,6.57,37.23,11.9,83.15,11.9s83.16-5.33,83.16-11.9V188.83Z"/><ellipse class="cls-4" cx="261.37" cy="188.83" rx="83.16" ry="11.9"/><path class="cls-3" d="M261.37,196.6c-32.3,0-66.63-2.72-66.63-7.77s34.33-7.78,66.63-7.78S328,183.78,328,188.83,293.67,196.6,261.37,196.6Zm0-14.55c-42.26,0-65.63,4-65.63,6.78s23.37,6.77,65.63,6.77,65.63-4,65.63-6.77S303.63,182.05,261.37,182.05Z"/><path class="cls-3" d="M165.73,170.62v12.62c0,6.57,37.23,11.89,83.15,11.89S332,189.81,332,183.24V170.62Z"/><ellipse class="cls-4" cx="248.88" cy="170.62" rx="83.16" ry="11.9"/><path class="cls-3" d="M248.88,178.4c-32.3,0-66.63-2.73-66.63-7.78s34.33-7.77,66.63-7.77,66.63,2.72,66.63,7.77S281.18,178.4,248.88,178.4Zm0-14.55c-42.26,0-65.63,4-65.63,6.77s23.37,6.78,65.63,6.78,65.63-4,65.63-6.78S291.14,163.85,248.88,163.85Z"/><path class="cls-5" d="M353.68,206.74c0-2-3.3-3.8-9.15-5.43V188.83h0c0-2.31-4.58-4.45-12.49-6.28V170.62c0-6.57-37.23-11.89-83.16-11.89s-83.15,5.32-83.15,11.89v12.62c0,2.3,4.57,4.45,12.49,6.27v11.93c0,2,3.3,3.81,9.15,5.43v12.49a2.58,2.58,0,0,0,0,.39c-7.07,1.75-11.12,3.78-11.12,5.95v12.62c0,2.07,3.7,4,10.21,5.71v10.31c-10.68,2-17,4.5-17,7.21v12.62c0,2.3,4.58,4.45,12.49,6.27v11.93c0,6.57,37.23,11.9,83.16,11.9s83.15-5.33,83.15-11.9V279.75h0c0-2.3-4.57-4.45-12.49-6.27V263.17c10.68-2,17-4.5,17-7.21V243.34c0-2.07-3.71-4-10.21-5.71V225.7a1.74,1.74,0,0,0-.05-.39c7.08-1.75,11.13-3.78,11.13-5.95V206.74Z"/><path class="cls-3" d="M22.49,279.75v12.62c0,6.57,37.23,11.9,83.16,11.9s83.15-5.33,83.15-11.9V279.75Z"/><ellipse class="cls-4" cx="105.65" cy="279.75" rx="83.16" ry="11.9"/><path class="cls-3" d="M105.65,287.53c-32.3,0-66.63-2.73-66.63-7.78S73.35,272,105.65,272s66.63,2.72,66.63,7.77S138,287.53,105.65,287.53Zm0-14.55C63.39,273,40,277,40,279.75s23.37,6.78,65.63,6.78,65.63-4,65.63-6.78S147.91,273,105.65,273Z"/><path class="cls-3" d="M10,261.55v12.62c0,6.57,37.23,11.89,83.16,11.89s83.15-5.32,83.15-11.89V261.55Z"/><ellipse class="cls-4" cx="93.16" cy="261.55" rx="83.16" ry="11.9"/><path class="cls-3" d="M93.16,269.32c-32.3,0-66.63-2.72-66.63-7.77s34.33-7.78,66.63-7.78,66.63,2.73,66.63,7.78S125.46,269.32,93.16,269.32Zm0-14.55c-42.26,0-65.63,4-65.63,6.78s23.37,6.77,65.63,6.77,65.63-4,65.63-6.77S135.42,254.77,93.16,254.77Z"/><path class="cls-3" d="M27,243.34V256c0,6.57,37.23,11.9,83.15,11.9s83.16-5.33,83.16-11.9V243.34Z"/><ellipse class="cls-4" cx="110.18" cy="243.34" rx="83.16" ry="11.9"/><path class="cls-3" d="M110.18,251.12c-32.3,0-66.63-2.73-66.63-7.78s34.33-7.77,66.63-7.77,66.63,2.72,66.63,7.77S142.48,251.12,110.18,251.12Zm0-14.55c-42.26,0-65.63,4-65.63,6.77s23.37,6.78,65.63,6.78,65.63-4,65.63-6.78S152.44,236.57,110.18,236.57Z"/><path class="cls-3" d="M16.82,225.7v12.62c0,6.57,37.23,11.89,83.15,11.89s83.16-5.32,83.16-11.89V225.7Z"/><path class="cls-4" d="M183.13,225.7c0,3.16-8.62,6-22.68,8.17-7.44,1.12-16.4,2-26.41,2.69-10.4.67-21.94,1-34.07,1-8.25,0-16.2-.17-23.72-.5-9.7-.4-18.68-1.07-26.54-1.92-20-2.17-32.89-5.62-32.89-9.48a1.14,1.14,0,0,1,0-.26.32.32,0,0,1,0-.14,1.25,1.25,0,0,1,.07-.26c0-.08.07-.17.12-.26a4.15,4.15,0,0,1,1.15-1.27l.29-.21.26-.17.3-.19c.44-.26.93-.52,1.49-.78l.64-.28.54-.22c1-.38,2.07-.76,3.29-1.12l.8-.24c.67-.18,1.38-.37,2.12-.55,14.38-3.56,41.25-5.95,72-5.95,45,0,81.71,5.12,83.11,11.51a1.48,1.48,0,0,1,0,.19A1.36,1.36,0,0,1,183.13,225.7Z"/><path class="cls-3" d="M100,233.47c-32.3,0-66.63-2.72-66.63-7.77s34.33-7.78,66.63-7.78,66.63,2.73,66.63,7.78S132.27,233.47,100,233.47Zm0-14.55c-42.26,0-65.63,4-65.63,6.78s23.37,6.77,65.63,6.77,65.63-4,65.63-6.77S142.23,218.92,100,218.92Z"/><path class="cls-5" d="M193.34,243.35V256a1.41,1.41,0,0,1,0,.28.4.4,0,0,1,0,.15.45.45,0,0,1,0,.11,1,1,0,0,1-.05.16,3.61,3.61,0,0,1-1,1.29,2.43,2.43,0,0,1-.25.2,19.16,19.16,0,0,1-5.53,2.57l-.69.22-.74.23c-.48.13-1,.28-1.49.41l-.8.21-.83.2-.85.2c-.87.21-1.79.41-2.74.6l-.95.19-1,.19v10.31l.46.11,1,.24c1,.25,2,.51,2.84.77l.86.26,1.26.42c.36.12.7.25,1,.38s.47.18.69.28l.63.28.43.2,0,0,.39.2,1.94,1.31a2.08,2.08,0,0,1,.21.21l.14.14.17.24a1.81,1.81,0,0,1,.19.29,1.37,1.37,0,0,1,.13.31,1.2,1.2,0,0,1,.08.27.36.36,0,0,1,0,.1v12.86c0,6.57-37.23,11.89-83.15,11.89S22.5,298.94,22.5,292.37V280.44l-.46-.11-1-.24a50.31,50.31,0,0,1-6-1.84l-.68-.27-.54-.24c-.48-.22-.91-.44-1.31-.66a6,6,0,0,1-.65-.41,6.11,6.11,0,0,1-.81-.61l-.17-.15a4.78,4.78,0,0,1-.48-.56,2,2,0,0,1-.17-.27,1.69,1.69,0,0,1-.13-.31,1,1,0,0,1-.07-.25.59.59,0,0,1,0-.13,1.79,1.79,0,0,1,0-.23V261.55a1.33,1.33,0,0,1,0-.28.4.4,0,0,1,0-.15.35.35,0,0,1,0-.11.75.75,0,0,1,.05-.16,2.26,2.26,0,0,1,.29-.52,3.63,3.63,0,0,1,.46-.53l.45-.39c.11-.08.21-.17.32-.24l.2-.13c.17-.12.37-.24.58-.36a6.07,6.07,0,0,1,.57-.31l.38-.19c.51-.25,1.06-.49,1.68-.73l.7-.26c.37-.14.77-.27,1.17-.41l.69-.22a87.12,87.12,0,0,1,9.4-2.22V244l-.18-.05-.94-.25c-1.23-.34-2.34-.7-3.33-1.06l-.71-.26c-.23-.09-.47-.18-.68-.28l-.64-.28a12.07,12.07,0,0,1-2.25-1.29,3.84,3.84,0,0,1-.43-.35l-.17-.16a3.06,3.06,0,0,1-.65-.85,1.28,1.28,0,0,1-.11-.24,1.78,1.78,0,0,1-.1-.38,1.23,1.23,0,0,1,0-.27V225.7a1.14,1.14,0,0,1,0-.26.32.32,0,0,1,0-.14,1.25,1.25,0,0,1,.07-.26c0-.08.07-.17.12-.26a4.15,4.15,0,0,1,1.15-1.27l.29-.21.26-.17.3-.19c.44-.26.93-.52,1.49-.78l.64-.28.54-.22c1-.38,2.07-.76,3.29-1.12l.8-.24c.67-.18,1.38-.37,2.12-.55,14.38-3.56,41.25-5.95,72-5.95,45,0,81.71,5.12,83.11,11.51a1.48,1.48,0,0,1,0,.19,1.36,1.36,0,0,1,0,.2v11.93l.6.16c.59.16,1.16.32,1.7.49l1.06.33A28.74,28.74,0,0,1,190,240l.35.18a9.86,9.86,0,0,1,1.31.78l.34.24.39.34a3.5,3.5,0,0,1,.27.28s0,0,0,.06a1.18,1.18,0,0,1,.18.21c.08.12.16.24.22.35a1,1,0,0,1,.11.27,1.26,1.26,0,0,1,.1.38A1.18,1.18,0,0,1,193.34,243.35Z"/><path class="cls-3" d="M97.14,292.61v12.62c0,6.57,37.23,11.89,83.15,11.89s83.16-5.32,83.16-11.89V292.61Z"/><ellipse class="cls-4" cx="180.29" cy="292.61" rx="83.16" ry="11.9"/><path class="cls-3" d="M180.29,300.39c-32.3,0-66.63-2.73-66.63-7.78s34.33-7.78,66.63-7.78,66.63,2.73,66.63,7.78S212.59,300.39,180.29,300.39Zm0-14.56c-42.26,0-65.63,4-65.63,6.78s23.37,6.78,65.63,6.78,65.63-4,65.63-6.78S222.55,285.83,180.29,285.83Z"/><path class="cls-6" d="M271.07,154.74s0-43.81,45.12-52.14C316.19,102.6,315.27,145.09,271.07,154.74Z"/><path class="cls-6" d="M242.17,73.82s26.2,1.62,29.52,28.9C271.69,102.72,246.32,100.62,242.17,73.82Z"/><path class="cls-6" d="M294,93.18s-19.91,1.22-22.43,21.95C271.54,115.13,290.82,113.53,294,93.18Z"/><path class="cls-6" d="M271.23,138.23s-23.9-3.53-24.81-28.82C246.42,109.41,269.53,113.34,271.23,138.23Z"/><path class="cls-6" d="M271.23,172.13a1,1,0,0,1-1-1V101.88a1,1,0,0,1,2,0v69.25A1,1,0,0,1,271.23,172.13Z"/><path class="cls-6" d="M54.42,128.52s26.2,1.61,29.53,28.9C84,157.42,58.57,155.31,54.42,128.52Z"/><path class="cls-6" d="M106.22,147.87s-19.9,1.22-22.43,22C83.79,169.83,103.07,168.22,106.22,147.87Z"/><path class="cls-6" d="M83.48,226.82a1,1,0,0,1-1-1V156.58a1,1,0,0,1,2,0v69.24A1,1,0,0,1,83.48,226.82Z"/><path class="cls-3" d="M84.65,274.41V287c0,6.57,37.23,11.9,83.15,11.9S251,293.59,251,287V274.41Z"/><ellipse class="cls-4" cx="167.8" cy="274.41" rx="83.16" ry="11.9"/><path class="cls-3" d="M167.8,282.18c-32.3,0-66.63-2.72-66.63-7.77s34.33-7.78,66.63-7.78,66.63,2.73,66.63,7.78S200.1,282.18,167.8,282.18Zm0-14.55c-42.26,0-65.63,4-65.63,6.78s23.37,6.77,65.63,6.77,65.63-4,65.63-6.77S210.06,267.63,167.8,267.63Z"/><path class="cls-3" d="M101.67,256.2v12.62c0,6.57,37.23,11.89,83.16,11.89S268,275.39,268,268.82V256.2Z"/><ellipse class="cls-4" cx="184.83" cy="256.2" rx="83.16" ry="11.9"/><path class="cls-3" d="M184.83,264c-32.31,0-66.64-2.73-66.64-7.78s34.33-7.77,66.64-7.77,66.63,2.72,66.63,7.77S217.13,264,184.83,264Zm0-14.55c-42.26,0-65.64,4-65.64,6.77S142.57,263,184.83,263s65.63-4,65.63-6.78S227.09,249.43,184.83,249.43Z"/><path class="cls-3" d="M91.46,238.56v12.61c0,6.57,37.23,11.9,83.16,11.9s83.15-5.33,83.15-11.9V238.56Z"/><ellipse class="cls-4" cx="174.62" cy="238.56" rx="83.16" ry="11.9"/><path class="cls-3" d="M174.62,246.33c-32.31,0-66.64-2.72-66.64-7.77s34.33-7.78,66.64-7.78,66.63,2.73,66.63,7.78S206.92,246.33,174.62,246.33Zm0-14.55c-42.26,0-65.64,4-65.64,6.78s23.38,6.77,65.64,6.77,65.63-4,65.63-6.77S216.87,231.78,174.62,231.78Z"/><path class="cls-3" d="M102.54,219.6v12.62c0,6.57,37.23,11.89,83.16,11.89s83.15-5.32,83.15-11.89V219.6Z"/><ellipse class="cls-4" cx="185.7" cy="219.6" rx="83.16" ry="11.9"/><path class="cls-3" d="M185.7,227.38c-32.31,0-66.64-2.73-66.64-7.78s34.33-7.78,66.64-7.78,66.63,2.73,66.63,7.78S218,227.38,185.7,227.38Zm0-14.56c-42.26,0-65.64,4-65.64,6.78s23.38,6.78,65.64,6.78,65.63-4,65.63-6.78S228,212.82,185.7,212.82Z"/><path class="cls-3" d="M93.39,201.68V214.3c0,6.57,37.23,11.9,83.16,11.9s83.15-5.33,83.15-11.9V201.68Z"/><ellipse class="cls-4" cx="176.55" cy="201.68" rx="83.16" ry="11.9"/><path class="cls-3" d="M176.55,209.46c-32.31,0-66.64-2.73-66.64-7.78s34.33-7.77,66.64-7.77,66.63,2.72,66.63,7.77S208.85,209.46,176.55,209.46Zm0-14.55c-42.26,0-65.64,4-65.64,6.77s23.38,6.78,65.64,6.78,65.63-4,65.63-6.78S218.81,194.91,176.55,194.91Z"/><path class="cls-3" d="M80.9,183.48V196.1c0,6.57,37.23,11.89,83.16,11.89s83.15-5.32,83.15-11.89V183.48Z"/><ellipse class="cls-4" cx="164.06" cy="183.48" rx="83.16" ry="11.9"/><path class="cls-3" d="M164.06,191.25c-32.31,0-66.64-2.72-66.64-7.77s34.33-7.78,66.64-7.78,66.63,2.73,66.63,7.78S196.36,191.25,164.06,191.25Zm0-14.55c-42.26,0-65.64,4-65.64,6.78s23.38,6.77,65.64,6.77,65.63-4,65.63-6.77S206.32,176.7,164.06,176.7Z"/><path class="cls-3" d="M97.92,165.27v12.62c0,6.57,37.23,11.9,83.16,11.9s83.16-5.33,83.16-11.9V165.27Z"/><ellipse class="cls-4" cx="181.08" cy="165.27" rx="83.16" ry="11.9"/><path class="cls-3" d="M181.08,173.05c-32.3,0-66.63-2.72-66.63-7.78s34.33-7.77,66.63-7.77,66.63,2.72,66.63,7.77S213.38,173.05,181.08,173.05Zm0-14.55c-42.26,0-65.63,4-65.63,6.77s23.37,6.78,65.63,6.78,65.63-4,65.63-6.78S223.34,158.5,181.08,158.5Z"/><path class="cls-3" d="M87.71,147.63v12.62c0,6.57,37.23,11.89,83.16,11.89S254,166.82,254,160.25V147.63Z"/><ellipse class="cls-4" cx="170.87" cy="147.63" rx="83.16" ry="11.9"/><path class="cls-3" d="M170.87,155.4c-32.3,0-66.63-2.72-66.63-7.77s34.33-7.78,66.63-7.78,66.63,2.73,66.63,7.78S203.17,155.4,170.87,155.4Zm0-14.55c-42.26,0-65.63,4-65.63,6.78s23.37,6.77,65.63,6.77,65.63-4,65.63-6.77S213.13,140.85,170.87,140.85Z"/><path class="cls-3" d="M98.79,128.67v12.62c0,6.57,37.23,11.9,83.16,11.9s83.15-5.33,83.15-11.9V128.67Z"/><ellipse class="cls-4" cx="181.95" cy="128.67" rx="83.16" ry="11.9"/><path class="cls-3" d="M182,136.45c-32.3,0-66.63-2.73-66.63-7.78s34.33-7.77,66.63-7.77,66.63,2.72,66.63,7.77S214.25,136.45,182,136.45Zm0-14.55c-42.26,0-65.63,4-65.63,6.77s23.37,6.78,65.63,6.78,65.63-4,65.63-6.78S224.21,121.9,182,121.9Z"/><path class="cls-6" d="M179.47,62.14s0-43.81,45.11-52.14C224.58,10,223.67,52.49,179.47,62.14Z"/><path class="cls-6" d="M180.47,62s-23.91-3.54-24.81-28.82C155.66,33.2,178.77,37.12,180.47,62Z"/><path class="cls-6" d="M180.47,128.82a1,1,0,0,1-1-1V62a1,1,0,0,1,2,0v65.8A1,1,0,0,1,180.47,128.82Z"/></g></g></g></svg>